<svg xmlns="http://www.w3.org/2000/svg" viewBox="0 0 192 192" fill="none">
  <rect width="192" height="192" rx="24" fill="#1DB954"/>
  <path d="M48 144c0-8.837 7.163-16 16-16s16 7.163 16 16-7.163 16-16 16-16-7.163-16-16z" fill="white"/>
  <path d="M128 120c0-8.837 7.163-16 16-16s16 7.163 16 16-7.163 16-16 16-16-7.163-16-16z" fill="white"/>
  <path d="M80 48v96c0 8.837-7.163 16-16 16s-16-7.163-16-16 7.163-16 16-16c2.122 0 4.157.412 6.013 1.163V64.837L160 48v72c0 8.837-7.163 16-16 16s-16-7.163-16-16 7.163-16 16-16c2.122 0 4.157.412 6.013 1.163V56.163L80 48z" fill="white"/>
</svg>